# xmcd
#
# Track frame offsets: 
#        150
#        17265
#        35989
#        58574
#        73373
#        91670
#        101516
#        123463
#        149444
#        178107
#        198831
#        215955
#        243623
#        268818
#
# Disc length: 3803 seconds
#
# Revision: 0
# Processed by: cddbd v1.5.2PL0 Copyright (c) Steve Scherf et al.
# Submitted via: ExactAudioCopy v0.99pb5
#
DISCID=d80ed90e
DTITLE=Greater Vision - 20 Years: Live In Texas
DYEAR=2010
DGENRE=Gospel
TTITLE0=Never Been
TTITLE1=God's Got A Bigger Thing Going On
TTITLE2=Without Jesus
TTITLE3=He'd Still Been God
TTITLE4=Narrative
TTITLE5=I Sing The Mighty Power Of God
TTITLE6=Narrative
TTITLE7=God So Loves Me
TTITLE8=I've Never Been Sorry
TTITLE9='Til The Storm Passes By
TTITLE10=It Means Just What It Says
TTITLE11=Narrative
TTITLE12=He'll Carry Me
TTITLE13=My Name Is Lazarus
EXTD=
EXTT0=
EXTT1=
EXTT2=
EXTT3=
EXTT4=
EXTT5=
EXTT6=
EXTT7=
EXTT8=
EXTT9=
EXTT10=
EXTT11=
EXTT12=
EXTT13=
PLAYORDER=
